<?xml version="1.0" encoding="UTF-8"?>
<svg id="Layer_1" xmlns="http://www.w3.org/2000/svg" width="500" height="500" version="1.1" viewBox="0 0 500 500">
  <!-- Generator: Adobe Illustrator 30.2.1, SVG Export Plug-In . SVG Version: 2.1.1 Build 1)  -->
  <defs>
    <style>
      .st0 {
        fill: #231f20;
      }

      .st1 {
        fill: #0066b3;
      }

      .st2 {
        fill: #ed1c24;
      }

      .st3 {
        fill: #fff;
      }

      .st4 {
        fill: #949393;
      }
    </style>
  </defs>
  <g>
    <path class="st4" d="M227.7,119.7c4.2,0,8.2.4,12.1,1.1l9.2-9.6c-6.5-2.2-13.7-3.5-21.4-3.5-13,0-24.8,3.6-33.6,9.5l8,7.6c7.4-3.3,16.2-5.1,25.6-5.1"/>
    <path class="st3" d="M227.7,107.6c7.7,0,14.9,1.3,21.4,3.5l10-10.4c-9.4-3.7-20-5.8-31.4-5.8-16.9,0-32.4,4.7-44.1,12.3l10.5,10c8.8-5.9,20.6-9.5,33.6-9.5"/>
    <path class="st4" d="M179.6,148.5c.8-3.4,2.4-6.7,4.6-9.7l-4-4.1c-.8,2.5-1.2,5.1-1.2,7.8s.3,4.1.7,6"/>
    <path class="st4" d="M149.7,171.1l-1.7,8.8,16.9-7.3c-1.1-2.2-1.3-5.2-1.9-7.5l-13.3,6Z"/>
    <polygon class="st4" points="137.8 75.4 113.4 209.3 124.9 210.2 149.1 74.4 137.8 75.4"/>
    <path class="st2" d="M220,152.5v-10.8l-17.7-16.8-8-7.6-10.5-10-34.6-32.8-24.2,135.8,51.2-22.5c-5.1-4.5-8.7-9.3-11.4-15l-16.7,7.2,1.7-8.8,10.8-56.3.9-4.7,8.9,9,11.5,11.6,4.9,5,20.3,17.5-19.7,9c5.1,5.1,11.2,9.6,19.3,12.1l24.5-11-11.2-10.7Z"/>
    <path class="st4" d="M275.9,148.5c.5-2,.7-4,.7-6,0-6-2.2-11.7-6-16.7l-5.8,6c5.6,4.7,9.6,10.4,11.1,16.7"/>
    <path class="st4" d="M286.9,205.8l-13.8-13.3c-2.2,1.5-4.6,2.9-7,4.2l20.8,20,64.3-66.9v-10.8c0,0-64.3,66.9-64.3,66.9Z"/>
    <path class="st4" d="M240,160.8l-11.4-10.9-8.7-8.3v10.9s12.2,11.8,12.2,11.8l11.7,11.2c3-.7,5.8-1.7,8.5-2.8l-12.3-11.8Z"/>
    <polygon class="st4" points="284.7 100.3 275.6 109.8 265.5 120.3 258.6 127.5 245.6 141.1 251 146.3 264.9 131.9 270.7 125.8 281.3 114.8 284.7 111.2 320.1 145.1 325.6 139.4 284.7 100.3"/>
    <path class="st3" d="M281.3,114.8l-10.6,11.1c3.8,5,6,10.6,6,16.7s-.3,4.1-.7,6c-1.2,5.1-4,9.8-8,13.9-4.1,4.2-9.4,7.7-15.6,10.3-2.7,1.1-5.5,2-8.5,2.8-5,1.3-10.5,1.9-16.1,1.9s-13.6-1-19.6-2.9c-8.2-2.5-15.2-6.6-20.3-11.7-1.9-1.9-3.5-3.9-4.8-6-1.6-2.6-2.9-5.4-3.6-8.3-.5-2-.7-4-.7-6s.4-5.3,1.2-7.8l-12.2-12.4c-4.5,6.6-7,14.1-7,22s.2,4,.5,6c.8,4.8,2.5,9.3,5,13.6,1.2,2.1,2.7,4.2,4.3,6.2,4.3,5.2,9.8,9.7,16.3,13.4,11.3,6.4,25.4,10.2,40.7,10.2s20.8-1.9,29.8-5.2c2.7-1,5.3-2.1,7.8-3.4,5.8-2.9,10.9-6.5,15.2-10.6,7.2-6.9,12-15.2,13.5-24.2.3-2,.5-4,.5-6,0-11.1-4.9-21.3-13.3-29.6"/>
    <path class="st1" d="M240,160.9l12.3,11.8c6.2-2.6,11.5-6,15.6-10.2l-16.8-16.2-5.5-5.2,13-13.5,6.9-7.2,10.1-10.5,9.2-9.5,40.7,39.1-5.5,5.7-33.4,34.7c-3.5,4.8-8.1,9.1-13.5,12.8l13.7,13.2,64.3-66.9-66.9-64.3-25.1,26.1-10,10.4-9.2,9.6-19.8,20.8,20,19.3Z"/>
    <path class="st4" d="M183.4,157.1s.3.5.4.6c1,1.6,2.3,3,3.6,4.4l20-9.2-46-42.8-1.3,6.6,36.1,35.7-12.8,4.7Z"/>
    <path class="st4" d="M294.6,144.3c0,2-.2,4-.5,6-1.5,9.1-6.3,17.4-13.5,24.2-4.3,4.1-9.4,7.7-15.2,10.6-2.5,1.3-5.1,2.4-7.8,3.4-9,3.3-19.1,5.2-29.8,5.2-15.3,0-29.4-3.8-40.7-10.2-6.5-3.7-12-8.2-16.3-13.4-1.6-2-3.1-4-4.3-6.2-2.5-4.3-4.2-8.8-5-13.6-.3-2-.5-4-.5-6s0-1.3,0-1.9c0,0,0,0,0-.1-.3,2,0,12,0,14,0,3.2.4,6.4,1.2,9.4.6,2.4,1.5,4.7,2.5,6.9,2.7,5.7,6.7,10.8,11.8,15.4,12.3,10.8,30.7,17.7,51.3,17.7s27.5-3.3,38.4-9c2.5-1.3,4.8-2.7,7-4.2,5.4-3.7,10-8,13.5-12.8,5.1-7,8-15,8-23.4s.2-10.3,0-13.6c0-.5,0,1,0,1.6"/>
  </g>
  <g>
    <polygon class="st0" points="87.9 332.5 150.9 332.5 145 356.7 114.8 356.7 111.8 369.5 143.3 369.5 137.8 392 106.7 392 99.3 423.9 66.7 423.9 87.9 332.5"/>
    <polygon class="st0" points="159.5 332.5 192 332.5 170.8 423.9 138.3 423.9 159.5 332.5"/>
    <path class="st0" d="M200.5,333l2.1-.3c10.4-1.2,23.4-2.1,30.6-2.1,11.9,0,21.2,1.4,28.2,4.2,9,3.7,14.3,11.8,14.3,21.5s-2.8,16.3-8.2,22.5c-4.6,5.3-8.8,7.9-17.5,10.6l-2.1.7c.9.7,1.2,1,1.6,1.4,2.5,2.9,10.2,17.7,16.6,32.3h-35.8c-4.6-13-6-16.4-12.1-31.2l-7.2,31.2h-31.6l21-90.9ZM224.6,376.1c10.4,0,17.8-6.2,17.8-14.9s-3.4-7-10.2-7-3,.1-5.1.5l-4.9,21.1c1,.1,1.2.3,2.4.3"/>
    <polygon class="st0" points="353 332.5 432 332.5 426.5 358.9 403 358.9 387.5 423.9 355 423.9 370.5 358.9 345.1 358.9 353 332.5"/>
    <path class="st0" d="M402.8,407.6c4.4,0,7.9,3.5,7.9,7.9s-3.5,7.9-7.9,7.9-7.9-3.5-7.9-7.9,3.5-7.9,7.9-7.9M402.8,422.4c3.9,0,7-3.1,7-6.9s-3.1-7-7-7-6.9,3.1-6.9,6.9,3.1,7,6.9,7M399.7,411.4c.4,0,.5,0,1.3-.1.8,0,1.1,0,1.5,0,2.6,0,3.9,1,3.9,2.9s-.5,1.9-1.5,2.3h-.1c0,0,.1.1.2.2.3.2,1.2,1.6,2,2.9h-3c-.6-1.1-.8-1.4-1.6-2.7v2.7h-2.5v-8.1ZM402.5,415.2c.7,0,1.1-.3,1.1-1s-.4-1-1.1-1-.2,0-.3,0v1.9c.1,0,.2,0,.3,0"/>
    <path class="st0" d="M269.4,421.6c9.1,2.7,19.2,4.2,28.5,4.2s22.4-2.9,30.8-8.9c9.3-6.6,15.2-16.7,15.2-25.9s-2.7-11.8-7.5-15.8c-3.7-3-7.6-5.3-15.5-9l-6.4-3c-2.1-1.1-3.1-2.2-3.1-3.4,0-3.3,4.2-5.8,9.9-5.8s9.3,1.2,19,4.4l6.7-24.7c-7.2-2-14.3-2.9-21.3-2.9-26.6,0-47,14.5-47,33.3s6.6,16.9,23,24.5c7.8,3.6,9.1,4.5,9.1,7,0,3.7-4,6-10.6,6s-13.3-1.8-23.4-5.5h0s-7.1,25.5-7.1,25.5Z"/>
  </g>
  <g>
    <path class="st0" d="M174.5,232.9h27.8c-6.6,30.8-13.1,61.5-19.7,92.2h-26c-9.7-16.4-19.3-32.9-28.3-49.8-3.6,16.7-7.1,33.2-10.6,49.8h-27.9c6.6-30.8,13.1-61.5,19.7-92.2h26.9c9.9,16.6,19.4,33.5,28.3,50.8,2.7-17.1,6.1-33.9,10-50.8Z"/>
    <path class="st0" d="M371.3,235.6c-4.1,8.6-8.2,17.2-12.4,25.8-1.5-.4-3-.7-4.4-1-2.7-.6-5.4-1.2-8.1-1.6-4.3-.7-8.5,0-12.5,1.5-7.5,2.9-13,8-15.8,15.6-1.4,3.9-1.7,7.9-.8,11.9,1.1,5.1,4.3,8.4,9,10.3,3.8,1.5,7.8,1.8,11.8,1.5,4.8-.4,9.4-1.6,14-3.2.2,0,.5-.2.7-.2,0,0,.2,0,.5,0-1.8,9-3.8,17.9-5.6,26.9-.3.1-.6.2-.9.3-7.1,2.2-14.3,3.6-21.8,3.7-6.5.1-12.9-.5-19-2.9-11.3-4.4-18.1-12.5-20.6-24.4-1-4.7-1-9.4-.7-14.2,1-12.7,5.9-23.7,14.4-33.2,5.7-6.3,12.1-11.5,19.8-15.2,5.6-2.7,11.5-4.5,17.6-5.4,5.5-.8,11.1-.9,16.6-.4,6,.5,11.8,1.9,17.5,3.9.2,0,.3.2.6.3Z"/>
    <path class="st0" d="M241.3,325.1h-31.6c.3-.5.6-.9.8-1.3,5.7-8.1,11.5-16.3,17.2-24.4.6-.8.6-1.4.3-2.3-7-21-14.1-42-21.1-63-.1-.4-.2-.7-.4-1.2h31.3c4.1,12.5,7.8,25.3,11.1,38.1,8.1-13,16.6-25.7,25.5-38.1h30c-.4.5-.6,1-.9,1.4-13.7,19.5-27.3,38.9-41,58.4-6.5,9.2-12.6,18.8-18.7,28.3-.9,1.4-1.8,2.8-2.7,4.2Z"/>
  </g>
</svg>