<?xml version="1.0" encoding="UTF-8"?><svg id="a" xmlns="http://www.w3.org/2000/svg" viewBox="0 0 166.3 28.2">
<title>Micro_Bit-logo - brandlogos.net</title><path d="M71.4,22.9h-3.3v-9.1c0-2-1.2-3.5-2.8-3.5s-2.8,1.4-2.8,3.5v9.1h-3.3v-9.1c0-2.3-1.4-3.5-2.8-3.5-1.6,0-2.8,1.4-2.8,3.5v9.1h-3.3v-9c0-4.1,2.5-6.9,6.1-6.9,1.7,0,3.1.7,4.4,2.1,1.2-1.4,2.7-2.1,4.5-2.1,3.6,0,6,2.9,6,6.9v9h.1ZM77.4,22.9h-3.3V7.4h3.3v15.5ZM75.7,5.1c-1.2,0-2.1-.9-2.1-2.1s.9-2.1,2.1-2.1,2.1.9,2.1,2.1c.1,1.2-.9,2.1-2.1,2.1ZM87.8,23.3c-2.1,0-4.2-.9-5.7-2.4s-2.3-3.5-2.3-5.8c0-2.2.8-4.3,2.3-5.8,1.6-1.4,3.6-2.3,5.7-2.3,2.3,0,4.3.8,5.8,2.3l.4.4-2.3,2.4-.4-.4c-1.1-1-2.2-1.5-3.4-1.5-2.6,0-4.8,2.2-4.8,4.9s2.1,4.9,4.8,4.9c1.2,0,2.3-.5,3.4-1.4l.4-.4,2.4,2.3-.5.4c-1.8,1.6-3.7,2.4-5.8,2.4ZM99.8,22.9h-3.5v-7.8c0-5,2.2-7.4,7-7.8l.7-.1v3.3l-.5.1c-2.6.3-3.6,1.5-3.6,4.3v8h-.1ZM113.1,23.3c-2.1,0-4.2-.9-5.7-2.4s-2.3-3.6-2.3-5.8.8-4.2,2.3-5.8c1.5-1.6,3.5-2.4,5.7-2.4,2.1,0,4.1.9,5.6,2.4s2.3,3.6,2.3,5.8-.8,4.3-2.3,5.8c-1.5,1.6-3.5,2.4-5.6,2.4ZM113,10.3c-2.5,0-4.6,2.2-4.6,4.9s2.1,4.9,4.6,4.9c2.6,0,4.6-2.1,4.6-4.9.1-2.8-2-4.9-4.6-4.9ZM126.5,22.9c-1.2,0-2.3-1-2.3-2.3s1-2.3,2.3-2.3,2.3,1,2.3,2.3c-.1,1.3-1.1,2.3-2.3,2.3ZM126.5,11.5c-1.2,0-2.3-1-2.3-2.3s1-2.3,2.3-2.3,2.3,1,2.3,2.3c-.1,1.3-1.1,2.3-2.3,2.3ZM139.9,23.3c-4.7,0-8-3.7-8-8.9V0h3.3v8.5c1.4-1,3-1.5,4.7-1.5,2.1,0,4.1.8,5.6,2.4,1.5,1.5,2.3,3.6,2.3,5.8s-.8,4.3-2.3,5.8-3.5,2.3-5.6,2.3ZM139.9,10.3c-2.6,0-4.8,2.2-4.8,4.9s2.1,4.9,4.8,4.9c2.6,0,4.8-2.2,4.8-4.9-.1-2.7-2.2-4.9-4.8-4.9ZM154,22.9h-3.3V7.4h3.3v15.5ZM152.3,5.1c-1.2,0-2.1-.9-2.1-2.1s.9-2.1,2.1-2.1,2.1.9,2.1,2.1c.1,1.2-.9,2.1-2.1,2.1ZM166.3,23.4l-.7-.1c-4.9-.9-6.7-3.3-6.7-8.6v-3.9h-1.4v-3.2h1.4v-3.5h3.3v3.4h4.1v3.2h-4.1v4.4c0,2.9,1.1,4.4,3.6,4.7l.5.1v3.5h0Z" style="fill:#262626;"/><path d="M32.2,17.8c1.5,0,2.6-1.2,2.6-2.6s-1.2-2.6-2.6-2.6c-1.5,0-2.6,1.2-2.6,2.6s1.2,2.6,2.6,2.6M13,12.6c-1.5,0-2.6,1.2-2.6,2.6s1.2,2.6,2.6,2.6,2.6-1.2,2.6-2.6-1.2-2.6-2.6-2.6" style="fill:#262626;"/><path d="M13,7.4c-4.3,0-7.8,3.5-7.8,7.8s3.5,7.8,7.8,7.8h19.5c4.3,0,7.8-3.5,7.8-7.8s-3.5-7.8-7.8-7.8H13M32.5,28.2H13C5.8,28.2,0,22.4,0,15.2S5.8,2.2,13,2.2h19.5c7.2,0,13,5.8,13,13s-5.9,13-13,13" style="fill:#262626;"/></svg>